<?xml version="1.0" standalone="no"?>
<!DOCTYPE svg PUBLIC "-//W3C//DTD SVG 20010904//EN"
 "http://www.w3.org/TR/2001/REC-SVG-20010904/DTD/svg10.dtd">
<svg version="1.0" xmlns="http://www.w3.org/2000/svg"
 width="535.000000pt" height="535.000000pt" viewBox="0 0 535.000000 535.000000"
 preserveAspectRatio="xMidYMid meet">
<metadata>
Created by potrace 1.11, written by Peter Selinger 2001-2013
</metadata>
<g transform="translate(0.000000,535.000000) scale(0.100000,-0.100000)"
fill="#000000" stroke="none">
<path d="M2488 5346 c-1 -2 -37 -6 -78 -10 -41 -3 -86 -8 -100 -11 -76 -13
-149 -25 -179 -30 -97 -16 -310 -81 -451 -137 -479 -190 -927 -550 -1218 -980
l-66 -99 601 -601 601 -601 1108 1107 c609 608 1105 1108 1103 1110 -34 30
-394 161 -499 181 -13 3 -67 13 -119 24 -53 11 -123 23 -156 27 -33 3 -69 8
-80 11 -22 5 -461 13 -467 9z"/>
<path d="M3469 4352 l-598 -598 1109 -1109 c610 -610 1111 -1107 1113 -1105
28 31 143 339 172 460 13 58 45 213 51 250 3 25 8 54 10 65 26 133 25 594 -1
735 -3 14 -7 41 -10 60 -11 69 -36 178 -55 251 -12 41 -22 81 -25 89 -9 37
-49 150 -75 215 -156 393 -402 737 -735 1031 -110 97 -327 254 -351 254 -3 0
-276 -269 -605 -598z"/>
<path d="M237 3777 c-111 -255 -171 -466 -214 -752 -25 -165 -24 -579 2 -725
3 -14 7 -41 10 -60 12 -72 45 -217 65 -285 11 -38 23 -80 26 -93 21 -98 177
-440 259 -568 19 -30 35 -56 35 -59 0 -2 30 -46 67 -97 211 -296 483 -554 770
-731 6 -4 245 227 599 581 324 324 594 595 601 603 10 12 -174 201 -1095 1122
l-1107 1107 -18 -43z"/>
<path d="M2637 1372 c-850 -850 -1105 -1111 -1095 -1119 34 -27 383 -153 461
-167 16 -3 43 -10 60 -15 18 -6 75 -17 127 -26 52 -9 106 -18 120 -21 103 -19
469 -26 633 -11 176 16 418 69 607 134 543 187 1035 569 1354 1052 l49 73
-604 604 -604 604 -1108 -1108z"/>
</g>
</svg>
