<svg id="4b9a057b-7f94-49ff-a3e6-c63f89d3313a" data-name="Слой 1" xmlns="http://www.w3.org/2000/svg" viewBox="0 0 382.94 70.8"><defs><style>.b79f6f04-d0e9-4d2c-b5e6-6b155e25a298{fill:#6a3417;}</style></defs><title>Дни Турбиных</title><path class="b79f6f04-d0e9-4d2c-b5e6-6b155e25a298" d="M1513,234.9a4.57,4.57,0,0,1,.48-2c3.84-8.16,8.76-18.24,12.12-28.2-6.24-.36-13.32-1-13.32-6.48,0-4.2,4.2-8.64,9-8.64,4.2,0,8.4,3.48,9.24,8.64,5.76-.6,16.8-2.28,16.8-3.72a10.69,10.69,0,0,1,.36,2.64,6.53,6.53,0,0,1-4.68,6.48c-3.84.6-7.8,0.72-13,1.08-0.12.84-.36,1.2-0.48,2a12,12,0,0,1,5.28-1.44c7.68,0,9.12,7.56,9.48,11.76,0,8.88-6.6,20.4-17,21a15.47,15.47,0,0,1-7.08-1.56,9.07,9.07,0,0,0-1.8,4c-0.84-.48-1.68-1-2.4-1.44a6.22,6.22,0,0,1-2.88-3.24A1.54,1.54,0,0,1,1513,234.9Zm16-36.48a1.78,1.78,0,0,0-.84-0.12c-0.48-.12-0.84-0.12-1.2-0.24-0.84-3.24-3.36-6-6.36-6-2,0-5.52,1.68-5.52,5.4,0,1.32.84,2.16,3.6,2.16S1524.17,198.78,1529,198.42Zm-6.12,30.72a7.54,7.54,0,0,0,4.8,1.68c5.64,0,12.36-7.32,12.36-14.52,0-3.72-.84-8.16-6.12-8.16-1.56,0-5,1-5,1.92C1527.05,217.26,1524.65,224,1522.85,229.14Z" transform="translate(-1286.58 -177.46)"/><path class="b79f6f04-d0e9-4d2c-b5e6-6b155e25a298" d="M1286.58,194.5c0-3.36.6-4.08,6.72-8.28h0.12c6.36-3.84,15.48-8.76,25.2-8.76,13.2,0,24.6,9.84,24.6,24.36,0,20.64-19.2,35.16-34.68,35.16-6.36,0-16.44-2-16.44-7.2,0-2.4,3.72-3.24,5.52-3.24,0-8.4,8.64-27.24,9.6-31.2l0.84-2.52a15.53,15.53,0,0,0,1-4c0.84,0.24,6.84,1.92,6.84,6a6.39,6.39,0,0,1-.6,2.76c-2.76,4.56-11.76,25.08-12.24,29.52,2.52,0.84,4.44,1.92,4.8,1.92v-0.12l0.24,0.24a0.94,0.94,0,0,1,.36.48,0.69,0.69,0,0,1-.72.72c-0.6,0-2.52-.84-4.92-1.44a16.07,16.07,0,0,0-.12,2.4,5.94,5.94,0,0,1-1.92-.6c-1.08-.48-2.28-1-2.76-2.28-2.28.12-3.6,0.36-3.6,1.2,0,2.28,7.68,4,12.12,4a30.35,30.35,0,0,0,26.88-16.44,26.11,26.11,0,0,0,4.08-14c0-11.52-7.92-18.36-16.8-18.36a30.76,30.76,0,0,0-9.84,1.56c-16.68,7.08-19.56,14.64-20.28,14.64C1287.3,198.7,1286.58,196.3,1286.58,194.5Z" transform="translate(-1286.58 -177.46)"/><path class="b79f6f04-d0e9-4d2c-b5e6-6b155e25a298" d="M1358.7,220.06c0-4.32,1.08-7.32,2.64-11.64-2.88,5.4-9.36,17-10.32,20.76,0,0.12-1.8,4.68-4.32,4.68-3.84,0-4.8-3.24-4.8-8,0-10.56,6.12-21.24,6.72-22.56A56.82,56.82,0,0,0,1351,197c1.08,0,5.52,3.6,5.52,6.12,0,5.4-9.24,13.56-9.24,23a4.94,4.94,0,0,0,.12,1.44c16-30.36,18.72-26.4,20.16-32.88,0.36,0,5.52,3.24,5.52,6a5.21,5.21,0,0,1-.84,2.76c-2.52,5.4-8,12.12-8,18.6,0,1.8.24,3.12,1.68,3.12,2,0,5.88-3.12,9.12-10.44a0.37,0.37,0,0,0,.24-0.12,1,1,0,0,1,.72.36l0.24,0.24c0,0.48-4.2,13.56-11.28,13.56a5.45,5.45,0,0,1-4.56-2.4A11.09,11.09,0,0,1,1358.7,220.06Z" transform="translate(-1286.58 -177.46)"/><path class="b79f6f04-d0e9-4d2c-b5e6-6b155e25a298" d="M1406.1,217.06c0,1.2-4.2,16-11.28,16-3.24,0-6.6-3.72-6.6-9.36-1.92,3.24-5.16,7.08-9.48,7.08-3,0-6.24-3.12-6.24-8.88,0-7.8,4.92-17.88,6.48-21.24h-0.12a23.92,23.92,0,0,0,1.32-2.4,19.1,19.1,0,0,0,1.68-3.72c0.36,0,5.52,3.24,5.52,6.12,0,3.6-9.36,15.48-9.36,23.52,0,1.92.36,3.36,2.28,3.36,2.28,0,5.64-2.4,8.4-8.76a58.19,58.19,0,0,1,4.68-13.32c0.36-.84.72-1.56,1.08-2.4,0.6-1.32,1.08-2.76,1.44-3.72,0.48,0,5.88,3.24,5.88,6.12,0,3.72-7.8,13.2-7.8,20.64,0,2.64.6,4,1.68,4,2.28,0,6.24-4.32,9.12-13.32a0.92,0.92,0,0,1,.72-0.12A1.35,1.35,0,0,1,1406.1,217.06Z" transform="translate(-1286.58 -177.46)"/><path class="b79f6f04-d0e9-4d2c-b5e6-6b155e25a298" d="M1441.73,180.22c5.88,0,11.28,1,16,1.56a100.12,100.12,0,0,0,13.56,1.2c12.48,0,16.92-4.32,17.88-4.32s1.32,4.56,1.44,4.56a6.71,6.71,0,0,1-1.32,4,6.3,6.3,0,0,1-1.2,1.32c-1.08.84-5.76,2.52-13.08,2.52a82.9,82.9,0,0,1-15.36-1.8,8.75,8.75,0,0,1-.6,3.12c-0.72,0-14.64,35.76-14.64,43.8a5.74,5.74,0,0,1-2.16-.72,4.53,4.53,0,0,1-2.64-2.88c0.48-3.84,1.2-8,2-12.48a170.87,170.87,0,0,1,8.76-30,2.42,2.42,0,0,0,.24-0.72,8.11,8.11,0,0,1,.48-1.8A57.71,57.71,0,0,0,1439,186.1c-13,0-24.48,7.92-24.48,22,0,10.8,7.32,16.08,15,16.08a18.16,18.16,0,0,0,3.84-.48,0.72,0.72,0,0,1,.48.12,0.94,0.94,0,0,1,.48.48,1.7,1.7,0,0,1-1,.84c-0.84.48-2.52,0.84-5.88,0.84-5.16,0-16.2-3.84-16.2-19.2C1411.26,189.46,1425.29,180.22,1441.73,180.22Z" transform="translate(-1286.58 -177.46)"/><path class="b79f6f04-d0e9-4d2c-b5e6-6b155e25a298" d="M1489.61,217.18v-0.12c-0.24,0-2.28,13.68-12.48,13.68a5.81,5.81,0,0,1-4.92-2.28c-0.48,1.32-1.2,2.4-1.68,3.48,5.76,1.32,10.44,2.16,14.64,2.16a6.93,6.93,0,0,0,1.8-.12c0,3.24-2,6.6-5.88,6.6-3.36,0-8.64-1.8-13.44-3.24-3.24,5.64-7,7.44-10.8,7.44-1.2,0-7.44-.12-7.44-6.24s7.56-7.2,9.48-7.2c1.32,0,2.28.12,3.36,0.12,3.24,0,3.12-1.56,4.08-4a9.68,9.68,0,0,1-6.6,3.24c-2.88,0-6.24-3-6.24-8.76,0-7.32,4.44-17.4,6.36-20.88l2.64-6.24c0.48,0,5.64,3.12,5.64,5.88,0,3.48-9,15.48-9,23.28,0,2,.36,3.6,2.28,3.6,2.76,0,7-3.72,10.2-13.92,2.88-9.6,4.44-11,4.8-13.08,2.28,1.08,5.4,3.12,5.4,6.36a5.94,5.94,0,0,1-.84,2.88c-2.88,5.16-5.16,8.88-5.16,14.28,0,1.92.24,3,2,3,2.76,0,7.32-3.12,10.56-10.44a0.37,0.37,0,0,0,.24-0.12,0.72,0.72,0,0,1,.48.12A0.82,0.82,0,0,1,1489.61,217.18Zm-25.8,19.56c0.48,0,1,.12,1.32.12h0.6l-3-.72a42.5,42.5,0,0,0-5.4-1c-2.76,0-5.52,1.08-5.52,4,0,2,2,3,4,3s4.44-1.32,6.72-5.28A3.73,3.73,0,0,1,1463.81,236.74Z" transform="translate(-1286.58 -177.46)"/><path class="b79f6f04-d0e9-4d2c-b5e6-6b155e25a298" d="M1507.37,207.94c0-.84-0.24-1.32-0.6-1.32-9.12,1-11.16,5.52-12.48,7.44-9.12,18.48-16,34.2-16.08,34.2-0.84,0-1.08-.6-1-0.6,1-6.84,15.84-49.44,15.84-51.24,0.72,0,5.64,2.52,6.36,5.52a14.57,14.57,0,0,1,7.2-2.4c4.92,0,6.6,3.12,6.6,7.32,0,5.16-2.4,11.16-3.84,14.16,7.68,1.56,7.8,2,7.8,2.4a0.61,0.61,0,0,1-.6.72c-1,0-4.08-.84-8.28-1.2-2.4,4.8-7.56,8.4-12.48,8.4-4.2,0-5.88-2.28-5.88-4.56,0-6.24,8-6.72,11.4-6.72a16.08,16.08,0,0,1,2.4.12C1505.33,217.06,1507.37,210.34,1507.37,207.94ZM1495,227.26c2,0,6-2.28,7.32-4.56-3.84,0-8.52,1.68-8.52,3.6A1,1,0,0,0,1495,227.26Z" transform="translate(-1286.58 -177.46)"/><path class="b79f6f04-d0e9-4d2c-b5e6-6b155e25a298" d="M1579,222.81c0,1.2-4.2,16-11.28,16-3.24,0-6.6-3.72-6.6-9.36-1.92,3.24-5.16,7.08-9.48,7.08-3,0-6.24-3.12-6.24-8.88,0-7.8,4.92-17.88,6.48-21.24h-0.12a23.92,23.92,0,0,0,1.32-2.4,19.1,19.1,0,0,0,1.68-3.72c0.36,0,5.52,3.24,5.52,6.12,0,3.6-9.36,15.48-9.36,23.52,0,1.92.36,3.36,2.28,3.36,2.28,0,5.64-2.4,8.4-8.76a58.19,58.19,0,0,1,4.68-13.32c0.36-.84.72-1.56,1.08-2.4,0.6-1.32,1.08-2.76,1.44-3.72,0.48,0,5.88,3.24,5.88,6.12,0,3.72-7.8,13.2-7.8,20.64,0,2.64.6,4,1.68,4,2.28,0,6.24-4.32,9.12-13.32a0.92,0.92,0,0,1,.72-0.12A1.35,1.35,0,0,1,1579,222.81Z" transform="translate(-1286.58 -177.46)"/><path class="b79f6f04-d0e9-4d2c-b5e6-6b155e25a298" d="M1590.56,225.81c0-4.32,1.08-7.32,2.64-11.64-2.88,5.4-9.36,17-10.32,20.76,0,0.12-1.8,4.68-4.32,4.68-3.84,0-4.8-3.24-4.8-8,0-10.56,6.12-21.24,6.72-22.56a56.82,56.82,0,0,0,2.4-6.24c1.08,0,5.52,3.6,5.52,6.12,0,5.4-9.24,13.56-9.24,23a4.94,4.94,0,0,0,.12,1.44c16-30.36,18.72-26.4,20.16-32.88,0.36,0,5.52,3.24,5.52,6a5.21,5.21,0,0,1-.84,2.76c-2.52,5.4-8,12.12-8,18.6,0,1.8.24,3.12,1.68,3.12,2,0,5.88-3.12,9.12-10.44a0.37,0.37,0,0,0,.24-0.12,1,1,0,0,1,.72.36l0.24,0.24c0,0.48-4.2,13.56-11.28,13.56a5.45,5.45,0,0,1-4.56-2.4A11.09,11.09,0,0,1,1590.56,225.81Z" transform="translate(-1286.58 -177.46)"/><path class="b79f6f04-d0e9-4d2c-b5e6-6b155e25a298" d="M1638,222.81c0,1.2-4.2,16-11.28,16-3.24,0-6.6-3.72-6.6-9.36-1.92,3.24-5.16,7.08-9.48,7.08-3,0-6.24-3.12-6.24-8.88,0-7.8,4.92-17.88,6.48-21.24h-0.12A23.92,23.92,0,0,0,1612,204a19.1,19.1,0,0,0,1.68-3.72c0.36,0,5.52,3.24,5.52,6.12,0,3.6-9.36,15.48-9.36,23.52,0,1.92.36,3.36,2.28,3.36,2.28,0,5.64-2.4,8.4-8.76a58.19,58.19,0,0,1,4.68-13.32c0.36-.84.72-1.56,1.08-2.4,0.6-1.32,1.08-2.76,1.44-3.72,0.48,0,5.88,3.24,5.88,6.12,0,3.72-7.8,13.2-7.8,20.64,0,2.64.6,4,1.68,4,2.28,0,6.24-4.32,9.12-13.32a0.92,0.92,0,0,1,.72-0.12A1.35,1.35,0,0,1,1638,222.81Z" transform="translate(-1286.58 -177.46)"/><path class="b79f6f04-d0e9-4d2c-b5e6-6b155e25a298" d="M1669.52,222.93a27.73,27.73,0,0,1-4.32,7.8c-1.32,1.56-4.08,6.12-9,6.12-5.52,0-8.52-5.88-10.2-10.44-10.56,10.56-18.48,18.24-18.48,18.36a0.67,0.67,0,0,1-.72-0.6c0-.84,9.84-13.08,17.4-22.56-1-3.24-1.56-6.12-2-8.52-2.76,4.32-6.84,6.6-9.24,6.6-1.32,0-1.32-.12-1.32-0.24,0-1.08,2.88,1,6.48-4.56a19,19,0,0,0,3.36-7.68,1.23,1.23,0,0,0-.12-0.48c0-.36,5.88-2.16,7.32-2.16,0.72,0,.48,7.92.84,10.44,3.24-3.84,5.52-6.84,6.36-7.8,0.6-.72,1.2-1.44,1.8-2a14.77,14.77,0,0,0,2.28-3.24,22.24,22.24,0,0,1,1.68,1.68c0.84,1,1.8,2,1.8,3.36,0,0.36.24,1.56-2,4v0.12L1650.44,222c0.6,3.36,2.52,10.8,5.88,10.8,4,0,7.32-4.2,8.88-6.12,3-3.72,3-4.32,3.48-4.32a0.72,0.72,0,0,1,.48.12A0.64,0.64,0,0,1,1669.52,222.93Z" transform="translate(-1286.58 -177.46)"/><path class="b79f6f04-d0e9-4d2c-b5e6-6b155e25a298" d="M1610.7,221.54a7.63,7.63,0,0,1,5.83-1.68,7.18,7.18,0,0,1,2.3.5,5,5,0,0,1,3,4.8" transform="translate(-1286.58 -177.46)"/></svg>